<svg width="86" height="86" viewBox="0 0 86 86" fill="none" xmlns="http://www.w3.org/2000/svg">
<g id="Group 7084">
<rect id="Rectangle 3240" opacity="0.2" x="0.849609" y="14.9776" width="72" height="72" rx="24" transform="rotate(-11.7226 0.849609 14.9776)" fill="#D9D9D9"/>
<g id="Group">
<path id="Vector" d="M30.7664 41.4515C28.6025 41.9005 27.2135 44.0169 27.6625 46.1808C28.1116 48.3447 30.2279 49.7337 32.3918 49.2847C34.5557 48.8357 35.9447 46.7193 35.4957 44.5554C35.0467 42.3915 32.9303 41.0025 30.7664 41.4515ZM54.2658 36.5754C52.1019 37.0244 50.713 39.1407 51.162 41.3046C51.611 43.4685 53.7273 44.8575 55.8912 44.4085C58.0551 43.9595 59.4441 41.8431 58.9951 39.6792C58.5461 37.5153 56.4298 36.1264 54.2658 36.5754ZM42.5161 39.0134C40.3522 39.4625 38.9632 41.5788 39.4123 43.7427C39.8613 45.9066 41.9776 47.2956 44.1415 46.8466C46.3054 46.3976 47.6944 44.2812 47.2454 42.1173C46.7964 39.9534 44.68 38.5644 42.5161 39.0134Z" fill="#9490A5"/>
</g>
</g>
</svg>
