<svg width="17" height="16" viewBox="0 0 17 16" fill="none" xmlns="http://www.w3.org/2000/svg">
<path id="Shape" d="M13.6111 0C15.2066 0 16.5 1.2934 16.5 2.88889V13.1111C16.5 14.7066 15.2066 16 13.6111 16H3.38889C1.7934 16 0.5 14.7066 0.5 13.1111V2.88889C0.5 1.2934 1.7934 0 3.38889 0H13.6111ZM15.1667 4.88889H1.83333V13.1111C1.83333 13.9702 2.52978 14.6667 3.38889 14.6667H13.6111C14.4702 14.6667 15.1667 13.9702 15.1667 13.1111V4.88889ZM4.72222 10.2222C5.33587 10.2222 5.83333 10.7197 5.83333 11.3333C5.83333 11.947 5.33587 12.4444 4.72222 12.4444C4.10857 12.4444 3.61111 11.947 3.61111 11.3333C3.61111 10.7197 4.10857 10.2222 4.72222 10.2222ZM8.5 10.2222C9.11365 10.2222 9.61111 10.7197 9.61111 11.3333C9.61111 11.947 9.11365 12.4444 8.5 12.4444C7.88635 12.4444 7.38889 11.947 7.38889 11.3333C7.38889 10.7197 7.88635 10.2222 8.5 10.2222ZM4.72222 6.66667C5.33587 6.66667 5.83333 7.16413 5.83333 7.77778C5.83333 8.39143 5.33587 8.88889 4.72222 8.88889C4.10857 8.88889 3.61111 8.39143 3.61111 7.77778C3.61111 7.16413 4.10857 6.66667 4.72222 6.66667ZM8.5 6.66667C9.11365 6.66667 9.61111 7.16413 9.61111 7.77778C9.61111 8.39143 9.11365 8.88889 8.5 8.88889C7.88635 8.88889 7.38889 8.39143 7.38889 7.77778C7.38889 7.16413 7.88635 6.66667 8.5 6.66667ZM12.2778 6.66667C12.8914 6.66667 13.3889 7.16413 13.3889 7.77778C13.3889 8.39143 12.8914 8.88889 12.2778 8.88889C11.6641 8.88889 11.1667 8.39143 11.1667 7.77778C11.1667 7.16413 11.6641 6.66667 12.2778 6.66667ZM13.6111 1.33333H3.38889C2.52978 1.33333 1.83333 2.02978 1.83333 2.88889V3.55556H15.1667V2.88889C15.1667 2.02978 14.4702 1.33333 13.6111 1.33333Z" fill="#9E9E9E"/>
</svg>
