<svg width="63" height="53" viewBox="0 0 63 53" fill="none" xmlns="http://www.w3.org/2000/svg">
<g id="Group 7761">
<path id="Vector 1" d="M43.8366 19.6586L44.4495 18.8685L43.8366 19.6586ZM1.71873 43.5986C1.23098 43.3395 0.625564 43.5249 0.366504 44.0127C0.107444 44.5004 0.29284 45.1058 0.780596 45.3649L1.71873 43.5986ZM0.780596 45.3649C1.94214 45.9818 3.08524 46.557 4.20975 47.0919L5.06885 45.2858C3.97177 44.7639 2.85502 44.2021 1.71873 43.5986L0.780596 45.3649ZM5.95877 47.8983C8.43723 49.0044 10.8222 49.9121 13.1121 50.6379L13.7164 48.7313C11.5029 48.0298 9.18826 47.1495 6.77389 46.0719L5.95877 47.8983ZM14.9523 51.188C17.6015 51.9318 20.1175 52.4273 22.4973 52.7016L22.7263 50.7148C20.4593 50.4535 18.0476 49.9797 15.493 49.2625L14.9523 51.188ZM24.4396 52.8789C27.2307 53.0656 29.8204 52.9385 32.2021 52.5461L31.8769 50.5727C29.6569 50.9385 27.2215 51.0605 24.573 50.8834L24.4396 52.8789ZM34.1164 52.1639C36.8542 51.5183 39.2814 50.5058 41.3846 49.2153L40.3386 47.5106C38.424 48.6854 36.1961 49.6186 33.6574 50.2173L34.1164 52.1639ZM43.0228 48.1067C45.2481 46.4498 47.029 44.4594 48.3484 42.2814L46.6378 41.2451C45.4525 43.2019 43.8469 44.9995 41.8283 46.5026L43.0228 48.1067ZM49.2921 40.5291C50.4587 38.071 51.0763 35.4386 51.1238 32.8204L49.1241 32.7841C49.0819 35.1127 48.5322 37.4656 47.4852 39.6716L49.2921 40.5291ZM51.0483 30.8212C50.7989 28.176 49.9527 25.5964 48.4893 23.2875L46.8001 24.3583C48.0878 26.3899 48.8361 28.6648 49.0571 31.009L51.0483 30.8212ZM47.3151 21.6582C46.4931 20.6494 45.538 19.7128 44.4495 18.8685L43.2237 20.4488C44.1934 21.201 45.0394 22.0314 45.7646 22.9216L47.3151 21.6582ZM44.4495 18.8685C43.1537 17.8634 41.8085 17.4258 40.561 17.5124L40.6995 19.5076C41.3624 19.4615 42.2345 19.6815 43.2237 20.4488L44.4495 18.8685ZM38.4318 18.2689C36.2142 19.8533 35.9209 23.27 38.4771 25.8782L39.9055 24.4783C38.031 22.5657 38.5718 20.627 39.5945 19.8962L38.4318 18.2689ZM39.9862 27.1073C41.623 28.1844 43.8994 29.0345 46.9258 29.4896L47.2233 27.5118C44.4019 27.0875 42.4201 26.3148 41.0856 25.4366L39.9862 27.1073ZM48.7056 29.7027C49.8055 29.8028 50.9933 29.8563 52.274 29.8563V27.8563C51.0487 27.8563 49.9217 27.8051 48.887 27.7109L48.7056 29.7027ZM52.274 29.8563C53.9444 29.8563 55.4742 29.4616 56.8223 28.7565L55.8954 26.9842C54.8329 27.5399 53.6211 27.8563 52.274 27.8563V29.8563ZM58.7604 27.4271C60.9969 25.4759 62.4157 22.5657 62.8541 19.4062L60.873 19.1313C60.4894 21.8966 59.26 24.3371 57.4456 25.9201L58.7604 27.4271ZM62.9993 17.1444C62.9737 14.2653 62.1513 11.2672 60.3763 8.60385L58.712 9.71301C60.259 12.0342 60.977 14.6487 60.9994 17.1622L62.9993 17.1444ZM58.9923 6.81822C57.1826 4.79654 54.7356 3.08765 51.5938 1.91711L50.8955 3.79126C53.7528 4.85579 55.9221 6.38699 57.5022 8.15215L58.9923 6.81822ZM49.4823 1.24217C48.1481 0.88155 46.7089 0.609294 45.1613 0.437501L44.9407 2.42529C46.3932 2.58652 47.7312 2.84064 48.9604 3.17289L49.4823 1.24217Z" fill="#0A013B"/>
</g>
</svg>
