<svg width="12" height="13" viewBox="0 0 12 13" fill="none" xmlns="http://www.w3.org/2000/svg">
<g id="&#240;&#159;&#166;&#134; icon &#34;Delete&#34;">
<g id="Group">
<path id="Vector" d="M4.75146 5.5V9.5C4.75146 9.7761 4.97532 10 5.25146 10C5.5276 10 5.75146 9.7761 5.75146 9.5V5.5C5.75146 5.22386 5.5276 5 5.25146 5C4.97532 5 4.75146 5.22386 4.75146 5.5Z" fill="#D84315"/>
<path id="Vector_2" d="M7.25146 5C7.5276 5 7.75146 5.22386 7.75146 5.5V9.5C7.75146 9.7761 7.5276 10 7.25146 10C6.97532 10 6.75146 9.7761 6.75146 9.5V5.5C6.75146 5.22386 6.97532 5 7.25146 5Z" fill="#D84315"/>
<path id="Vector_3" d="M8.25146 2.5H11.2515C11.5276 2.5 11.7515 2.72386 11.7515 3C11.7515 3.27614 11.5276 3.5 11.2515 3.5H10.699L9.94606 10.2761C9.80536 11.5422 8.73527 12.5 7.46138 12.5H5.04154C3.76767 12.5 2.69751 11.5422 2.55683 10.2761L1.80393 3.5H1.25146C0.975325 3.5 0.751465 3.27614 0.751465 3C0.751465 2.72386 0.975325 2.5 1.25146 2.5H4.25146C4.25146 1.39543 5.14689 0.5 6.25146 0.5C7.35603 0.5 8.25146 1.39543 8.25146 2.5ZM6.25146 1.5C5.69918 1.5 5.25146 1.94772 5.25146 2.5H7.25146C7.25146 1.94772 6.80375 1.5 6.25146 1.5ZM2.81009 3.5L3.55071 10.1656C3.63512 10.9253 4.27722 11.5 5.04154 11.5H7.46138C8.2257 11.5 8.86776 10.9253 8.95216 10.1656L9.69286 3.5H2.81009Z" fill="#D84315"/>
</g>
</g>
</svg>
