<svg width="201" height="82" viewBox="0 0 201 82" fill="none" xmlns="http://www.w3.org/2000/svg">
<g id="eblogo_full 3" clip-path="url(#clip0_12_9433)">
<g id="Group">
<path id="Vector" d="M137.861 43.1282C137.861 64.0785 121.119 81.0901 100.5 81.0901C79.8814 81.0901 63.1392 64.0785 63.1392 43.1282C63.1392 22.178 79.8814 5.16632 100.5 5.16632C121.119 5.16632 137.861 22.178 137.861 43.1282Z" fill="#FFCD06"/>
<path id="Vector_2" d="M121.531 47.3184C121.201 46.3128 120.706 45.4748 120.047 44.7206C119.469 43.9664 118.727 43.3798 117.902 42.877C117.078 42.3742 116.17 42.039 115.263 41.8714C116.005 41.5362 116.665 41.1172 117.242 40.6144C117.82 40.1115 118.315 39.5249 118.727 38.8545C119.139 38.1841 119.387 37.5137 119.634 36.7595C119.799 36.0053 119.964 35.1673 119.964 34.3293C119.964 32.9047 119.717 31.6476 119.304 30.5582C118.892 29.4688 118.232 28.547 117.325 27.709C116.418 26.9548 115.346 26.3682 114.026 25.9492C112.706 25.5302 110.974 25.3625 108.913 25.3625H105.201H101.078H100.995C100.583 25.3625 100.17 25.5302 99.8404 25.7816C99.5105 26.033 99.2631 26.5358 99.2631 27.29V29.2174V40.6144H96.2115H91.9229C90.6858 40.6144 89.7785 40.4468 89.0363 40.1115C88.294 39.7763 87.7167 39.3573 87.2218 38.8545C86.727 38.3517 86.3971 37.6813 86.1497 37.0109C85.9022 36.2567 85.8198 35.5863 85.8198 34.7483C85.8198 33.9103 85.9022 33.1561 86.1497 32.4018C86.3971 31.7314 86.727 31.1448 87.2218 30.642C87.7167 30.1392 88.3765 29.804 89.2012 29.5526C90.026 29.3012 91.0981 29.1336 92.4177 29.1336H96.7064H96.7888V25.2787H96.459H92.1703C90.1084 25.2787 88.3765 25.4464 87.0569 25.8654C85.7373 26.2844 84.6651 26.871 83.7579 27.6252C82.8507 28.3794 82.1909 29.3012 81.7785 30.4744C81.3662 31.5638 81.1187 32.8208 81.1187 34.2455C81.1187 35.0835 81.2012 35.9215 81.4486 36.6757C81.6136 37.4299 81.9435 38.1841 82.3559 38.7707C82.7682 39.4411 83.2631 40.0277 83.8404 40.5306C84.4177 41.0334 85.0775 41.4524 85.8198 41.7876C84.9126 41.9552 84.0053 42.2904 83.1806 42.7932C82.3559 43.296 81.6136 43.8826 81.0363 44.6368C80.4589 45.391 79.9641 46.229 79.5517 47.2346C79.2218 48.2403 79.0569 49.3297 79.0569 50.5029C79.0569 51.5923 79.2218 52.5979 79.4693 53.6035C79.7167 54.5253 80.1291 55.3634 80.6239 56.1176C81.1187 56.8718 81.6961 57.5422 82.4383 58.045C83.1806 58.6316 83.9229 59.0506 84.8301 59.4696C85.7373 59.8886 86.6445 60.14 87.6342 60.3076C88.6239 60.4752 89.7785 60.559 91.0981 60.559H95.3868H96.9538V56.7042H94.8919H90.6033C89.5311 56.7042 88.6239 56.5366 87.8816 56.2852C87.0569 56.0338 86.3971 55.6148 85.8198 55.1957C85.2425 54.6929 84.7476 54.1063 84.4177 53.3521C84.0878 52.5979 83.9229 51.7599 83.9229 50.7543C83.9229 49.6649 84.0878 48.7431 84.4177 47.9889C84.7476 47.1508 85.2425 46.4804 85.9022 45.9776C86.562 45.391 87.3043 45.0558 88.294 44.7206C89.2837 44.4692 90.4383 44.3016 91.9229 44.3016H96.2115H99.5105V56.7042V58.883C99.5105 59.5534 99.6754 60.0562 100.088 60.3914C100.418 60.6428 100.83 60.8104 101.242 60.8104H101.325H105.449H110.232C111.552 60.8104 112.706 60.7266 113.696 60.559C114.686 60.3914 115.675 60.0562 116.5 59.721C117.407 59.302 118.15 58.883 118.892 58.2964C119.634 57.7098 120.212 57.0394 120.706 56.369C121.201 55.6148 121.614 54.7767 121.861 53.8549C122.108 52.9331 122.273 51.9275 122.273 50.7543C122.108 49.4135 121.861 48.3241 121.531 47.3184ZM108.005 29.3012H108.5C109.82 29.3012 110.892 29.4688 111.717 29.7202C112.541 29.9716 113.201 30.3068 113.696 30.8096C114.191 31.3124 114.521 31.899 114.768 32.5694C115.016 33.2399 115.098 33.9941 115.098 34.9159C115.098 35.6701 115.016 36.4243 114.768 37.1785C114.521 37.9327 114.191 38.5193 113.696 39.0221C113.201 39.5249 112.624 39.9439 111.882 40.2792C111.139 40.6144 110.15 40.782 108.995 40.782H108.005H103.717V29.3012H108.005ZM108.005 56.8718H103.717V44.4692H108.005H109.325C110.809 44.4692 111.964 44.6368 112.954 44.8882C113.943 45.1396 114.686 45.5586 115.346 46.1452C116.005 46.7318 116.5 47.4022 116.83 48.1565C117.16 48.9945 117.325 49.9163 117.325 50.9219C117.325 51.9275 117.16 52.7655 116.83 53.5197C116.5 54.2739 116.005 54.8605 115.428 55.3634C114.851 55.8662 114.108 56.2014 113.366 56.4528C112.541 56.7042 111.634 56.8718 110.645 56.8718H108.005Z" fill="white"/>
</g>
</g>
<defs>
<clipPath id="clip0_12_9433">
<rect width="200" height="80.3653" fill="white" transform="translate(0.5 0.724854)"/>
</clipPath>
</defs>
</svg>
