<svg width="73" height="72" viewBox="0 0 73 72" fill="none" xmlns="http://www.w3.org/2000/svg">
<g id="Group 7760">
<g id="Group 7756">
<g id="Group 7755">
<g id="Rectangle 3266">
<rect x="0.209839" y="5.38135" width="65.6033" height="66.2027" rx="12" fill="white"/>
<rect x="1.20984" y="6.38135" width="63.6033" height="64.2027" rx="11" stroke="#7350FF" stroke-opacity="0.6" stroke-width="2"/>
</g>
<path id="Rectangle 3269" d="M1.55078 16.5961C1.55078 11.0732 6.02793 6.59607 11.5508 6.59607H54.5629C60.0857 6.59607 64.5629 11.0732 64.5629 16.5961V22.0189H1.55078V16.5961Z" fill="#7350FF" fill-opacity="0.3"/>
<rect id="Rectangle 3270" x="6.80627" y="14.2672" width="35.5821" height="1.15353" rx="0.576767" fill="white"/>
<rect id="Rectangle 3271" x="6.80627" y="17.1665" width="21.3271" height="1.15354" rx="0.576769" fill="white"/>
</g>
<g id="Group 7754">
<rect id="Rectangle 3267" x="16.2173" y="0.416016" width="3.9362" height="9.93041" rx="1.9681" fill="#AB96FF"/>
<rect id="Rectangle 3268" x="45.8694" y="0.416016" width="3.9362" height="9.93041" rx="1.9681" fill="#AB96FF"/>
</g>
</g>
<g id="Group 7759">
<rect id="Rectangle 3272" x="6.77026" y="25.7378" width="9.18446" height="9.26838" rx="2" fill="#F5F5F5"/>
<rect id="Rectangle 3273" x="21.203" y="25.7378" width="9.18446" height="9.26838" rx="2" fill="#AB96FF"/>
<rect id="Rectangle 3274" x="35.6356" y="25.7378" width="9.18446" height="9.26838" rx="2" fill="#F5F5F5"/>
<rect id="Rectangle 3275" x="50.0685" y="25.7378" width="9.18446" height="9.26838" rx="2" fill="#F5F5F5"/>
<rect id="Rectangle 3272_2" x="6.77026" y="40.3025" width="9.18446" height="9.26838" rx="2" fill="#F5F5F5"/>
<rect id="Rectangle 3273_2" x="21.203" y="40.3025" width="9.18446" height="9.26838" rx="2" fill="#F5F5F5"/>
<rect id="Rectangle 3274_2" x="35.6356" y="40.3025" width="9.18446" height="9.26838" rx="2" fill="#F5F5F5"/>
<rect id="Rectangle 3275_2" x="50.0685" y="40.3025" width="9.18446" height="9.26838" rx="2" fill="#AB96FF"/>
<rect id="Rectangle 3272_3" x="6.77026" y="56.1912" width="9.18446" height="9.26839" rx="2" fill="#F5F5F5"/>
<rect id="Rectangle 3273_3" x="21.203" y="56.1912" width="9.18446" height="9.26839" rx="2" fill="#AB96FF"/>
<rect id="Rectangle 3274_3" x="35.6356" y="56.1912" width="9.18446" height="9.26839" rx="2" fill="#F5F5F5"/>
<rect id="Rectangle 3275_3" x="50.0685" y="56.1912" width="9.18446" height="9.26839" rx="2" fill="#F5F5F5"/>
</g>
<g id="Group 7758">
<g id="Ellipse 8">
<ellipse cx="62.9356" cy="24.7742" rx="9.84049" ry="9.93041" fill="white"/>
<path d="M71.7761 24.7742C71.7761 29.7149 67.8095 33.7046 62.9356 33.7046C58.0617 33.7046 54.0951 29.7149 54.0951 24.7742C54.0951 19.8334 58.0617 15.8438 62.9356 15.8438C67.8095 15.8438 71.7761 19.8334 71.7761 24.7742Z" stroke="#7350FF" stroke-opacity="0.6" stroke-width="2"/>
</g>
<g id="Group 7757">
<path id="Vector" d="M65.4687 23.07C65.4687 22.392 65.2018 21.7418 64.7267 21.2624C64.2516 20.783 63.6073 20.5137 62.9355 20.5137C62.2636 20.5137 61.6193 20.783 61.1442 21.2624C60.6691 21.7418 60.4022 22.392 60.4022 23.07C60.4022 26.0525 59.1356 26.9046 59.1356 26.9046H66.7353C66.7353 26.9046 65.4687 26.0525 65.4687 23.07Z" stroke="#0A013B" stroke-width="1.5" stroke-linecap="round" stroke-linejoin="round"/>
<path id="Vector_2" d="M63.666 28.6088C63.5918 28.7379 63.4853 28.8451 63.3571 28.9196C63.2289 28.9941 63.0835 29.0333 62.9356 29.0333C62.7877 29.0333 62.6423 28.9941 62.5142 28.9196C62.386 28.8451 62.2794 28.7379 62.2052 28.6088" stroke="#0A013B" stroke-width="1.5" stroke-linecap="round" stroke-linejoin="round"/>
</g>
</g>
</g>
</svg>
