<svg width="220" height="87" viewBox="0 0 220 87" fill="none" xmlns="http://www.w3.org/2000/svg">
<g id="logo 1">
<path id="Vector" d="M116.276 41.4589C116.276 43.727 116.006 45.8135 115.554 47.6279C115.102 49.4424 114.38 50.9846 113.387 52.2547C112.393 53.5247 111.219 54.5226 109.865 55.1576C108.42 55.8834 106.884 56.1556 105.078 56.1556C104.265 56.1556 103.633 56.0649 102.911 55.8834C102.279 55.702 101.646 55.5205 101.014 55.1576C100.382 54.7948 99.7499 54.4319 99.1177 53.8875C98.4855 53.3433 97.8534 52.7989 97.131 52.164V65.2275C97.131 65.4089 97.131 65.4997 97.0406 65.5904C96.9503 65.6811 96.86 65.7719 96.6794 65.8626C96.4987 65.9533 96.2278 65.9533 95.9569 66.044C95.686 66.044 95.2344 66.1348 94.7829 66.1348C94.3313 66.1348 93.97 66.1348 93.6089 66.044C93.3379 66.044 93.067 65.9533 92.8864 65.8626C92.7058 65.7719 92.6155 65.6811 92.5252 65.5904C92.4348 65.4997 92.4348 65.3182 92.4348 65.2275V28.7583C92.4348 28.5769 92.4348 28.4861 92.5252 28.3047C92.6155 28.214 92.7058 28.1232 92.8864 28.0325C93.067 27.9418 93.2476 27.9418 93.5186 27.851C93.7895 27.851 94.1507 27.851 94.5119 27.851C94.8732 27.851 95.2344 27.851 95.5053 27.851C95.7763 27.851 95.9569 27.9418 96.1376 28.0325C96.3181 28.1232 96.4084 28.214 96.4987 28.3047C96.589 28.3954 96.589 28.5769 96.589 28.7583V32.2963C97.4018 31.4799 98.1244 30.7541 98.8468 30.2098C99.5692 29.5747 100.292 29.1211 101.014 28.7583C101.737 28.3954 102.55 28.0325 103.272 27.851C104.085 27.6696 104.898 27.5789 105.71 27.5789C107.607 27.5789 109.232 27.9418 110.497 28.6676C111.851 29.3933 112.935 30.3912 113.748 31.6614C114.561 32.9314 115.193 34.3829 115.554 36.1065C116.096 37.7395 116.276 39.5539 116.276 41.4589ZM111.4 42.0033C111.4 40.6425 111.31 39.3725 111.129 38.1024C110.948 36.8323 110.587 35.7437 110.045 34.7457C109.594 33.7478 108.871 33.0222 108.058 32.3871C107.246 31.8427 106.162 31.4799 104.988 31.4799C104.356 31.4799 103.724 31.5706 103.182 31.752C102.55 31.9334 102.008 32.2056 101.375 32.6592C100.743 33.0222 100.111 33.5664 99.3887 34.2015C98.6661 34.8365 98.034 35.653 97.2213 36.5602V46.9021C98.5758 48.5351 99.7499 49.7144 100.924 50.6217C102.098 51.4381 103.362 51.8918 104.627 51.8918C105.801 51.8918 106.884 51.6196 107.697 50.9846C108.6 50.4402 109.232 49.6237 109.774 48.6258C110.316 47.6279 110.677 46.5393 110.948 45.36C111.219 44.4527 111.4 43.1827 111.4 42.0033Z" fill="#292A39"/>
<path id="Vector_2" d="M142.647 40.7332C142.647 41.4591 142.466 42.0033 142.105 42.3662C141.744 42.7291 141.293 42.8199 140.841 42.8199H123.772C123.772 44.2714 123.953 45.5414 124.224 46.7208C124.495 47.9001 125.036 48.898 125.669 49.7145C126.301 50.531 127.204 51.1661 128.288 51.6196C129.371 52.0732 130.726 52.2547 132.261 52.2547C133.526 52.2547 134.609 52.1639 135.603 51.9825C136.596 51.801 137.409 51.529 138.131 51.2568C138.854 50.9846 139.396 50.8031 139.847 50.531C140.298 50.3495 140.66 50.2588 140.841 50.2588C141.022 50.2588 141.112 50.2588 141.201 50.3495C141.293 50.4402 141.382 50.531 141.473 50.6217C141.563 50.7124 141.563 50.9846 141.563 51.1661C141.563 51.4382 141.563 51.7103 141.563 52.0732C141.563 52.3454 141.563 52.5268 141.563 52.7083C141.563 52.8896 141.563 53.0711 141.473 53.1618C141.473 53.3433 141.382 53.434 141.293 53.5247C141.201 53.6155 141.112 53.7062 141.022 53.8876C140.931 53.9784 140.57 54.1598 140.119 54.4319C139.576 54.7041 138.945 54.8855 138.131 55.1577C137.319 55.4299 136.325 55.6113 135.241 55.7927C134.158 55.9741 132.984 56.0649 131.719 56.0649C129.552 56.0649 127.746 55.7927 126.12 55.1577C124.495 54.5226 123.14 53.7062 122.056 52.5269C120.973 51.3475 120.16 49.896 119.618 48.0816C119.076 46.2671 118.805 44.2714 118.805 41.9126C118.805 39.6446 119.076 37.6489 119.708 35.8345C120.25 34.02 121.153 32.5685 122.237 31.2984C123.321 30.0284 124.675 29.1212 126.211 28.3954C127.746 27.7604 129.462 27.3975 131.358 27.3975C133.435 27.3975 135.151 27.7604 136.596 28.3954C138.042 29.0305 139.215 29.9376 140.119 31.0263C141.022 32.115 141.744 33.4758 142.196 34.9273C142.647 36.4694 142.827 38.0117 142.827 39.7354V40.7332H142.647ZM137.861 39.2817C137.95 36.7416 137.319 34.8366 136.235 33.3851C135.061 31.9335 133.345 31.2077 130.997 31.2077C129.823 31.2077 128.739 31.3892 127.926 31.8428C127.023 32.2963 126.301 32.8407 125.669 33.5665C125.036 34.2922 124.585 35.1994 124.314 36.1066C123.953 37.1045 123.772 38.1024 123.772 39.191H137.861V39.2817Z" fill="#292A39"/>
<path id="Vector_3" d="M166.578 54.8855C166.578 55.1577 166.488 55.2485 166.307 55.4299C166.127 55.5206 165.947 55.6114 165.676 55.7021C165.404 55.7928 165.044 55.7928 164.501 55.7928C163.96 55.7928 163.599 55.7928 163.327 55.7021C163.057 55.6114 162.786 55.5206 162.696 55.4299C162.605 55.3392 162.515 55.1577 162.515 54.8855V52.2547C161.341 53.434 160.076 54.432 158.721 55.067C157.367 55.7021 155.832 56.0649 154.297 56.0649C152.942 56.0649 151.678 55.8836 150.594 55.5207C149.51 55.1577 148.517 54.6134 147.795 53.9784C146.981 53.3433 146.44 52.4362 145.988 51.4383C145.537 50.4403 145.356 49.3517 145.356 48.0816C145.356 46.6301 145.628 45.36 146.259 44.2714C146.891 43.1828 147.705 42.2755 148.788 41.5498C149.872 40.824 151.226 40.2798 152.852 39.9169C154.477 39.5539 156.284 39.3726 158.27 39.3726H161.883V37.3767C161.883 36.3789 161.793 35.4716 161.522 34.7459C161.341 33.9293 160.979 33.2944 160.528 32.8407C160.076 32.2965 159.444 31.9336 158.721 31.6614C157.999 31.3892 157.006 31.2985 155.922 31.2985C154.748 31.2985 153.664 31.4799 152.762 31.7521C151.859 32.0243 151.046 32.3872 150.323 32.6593C149.601 33.0222 149.058 33.2944 148.607 33.5665C148.156 33.8387 147.795 34.02 147.524 34.02C147.343 34.02 147.253 34.02 147.162 33.9293C147.072 33.8387 146.981 33.748 146.891 33.5665C146.802 33.3851 146.71 33.2036 146.71 32.9314C146.71 32.6593 146.621 32.3872 146.621 32.115C146.621 31.6614 146.621 31.2077 146.71 30.9357C146.802 30.6635 146.981 30.3913 147.162 30.1191C147.433 29.8469 147.884 29.5749 148.517 29.212C149.149 28.8491 149.872 28.5769 150.684 28.3048C151.497 28.0327 152.4 27.7605 153.393 27.579C154.388 27.3976 155.381 27.3068 156.374 27.3068C158.27 27.3068 159.806 27.4883 161.16 27.9419C162.515 28.3954 163.508 29.0305 164.322 29.8469C165.134 30.6635 165.676 31.6614 166.127 32.9314C166.488 34.1108 166.669 35.5623 166.669 37.1953V54.8855H166.578ZM161.793 43.0013H157.728C156.374 43.0013 155.289 43.0921 154.297 43.3643C153.304 43.5456 152.49 43.9085 151.859 44.3621C151.226 44.8158 150.775 45.36 150.413 45.9044C150.142 46.5393 149.961 47.1744 149.961 47.9909C149.961 49.3517 150.413 50.4403 151.226 51.2568C152.038 52.0732 153.304 52.4362 154.839 52.4362C156.103 52.4362 157.277 52.0732 158.361 51.4383C159.444 50.8032 160.528 49.8053 161.702 48.5352V43.0013H161.793Z" fill="#292A39"/>
<path id="Vector_4" d="M187.53 30.482C187.53 30.9356 187.53 31.2985 187.53 31.5707C187.53 31.8428 187.44 32.1149 187.44 32.2056C187.351 32.3871 187.351 32.4778 187.259 32.5685C187.17 32.6593 187.078 32.6593 186.899 32.6593C186.718 32.6593 186.537 32.6593 186.356 32.5685C186.175 32.4778 185.905 32.3871 185.634 32.2963C185.363 32.2056 185.001 32.1149 184.731 32.0242C184.37 31.9336 184.008 31.9336 183.647 31.9336C183.195 31.9336 182.654 32.0242 182.202 32.2056C181.75 32.3871 181.209 32.75 180.757 33.2036C180.216 33.6571 179.673 34.2015 179.132 34.9272C178.591 35.653 177.958 36.5602 177.325 37.6488V54.7948C177.325 54.9763 177.325 55.067 177.236 55.1577C177.145 55.2485 177.055 55.3392 176.874 55.4298C176.693 55.5205 176.422 55.5205 176.152 55.6112C175.881 55.6112 175.429 55.702 174.978 55.702C174.526 55.702 174.164 55.702 173.804 55.6112C173.533 55.6112 173.261 55.5205 173.082 55.4298C172.901 55.3392 172.809 55.2485 172.72 55.1577C172.63 55.067 172.63 54.8856 172.63 54.7948V28.7583C172.63 28.5769 172.63 28.4862 172.72 28.3954C172.809 28.3047 172.901 28.214 173.082 28.1232C173.261 28.0325 173.442 27.9418 173.713 27.9418C173.985 27.9418 174.345 27.9418 174.797 27.9418C175.248 27.9418 175.61 27.9418 175.881 27.9418C176.152 27.9418 176.333 28.0325 176.513 28.1232C176.693 28.214 176.784 28.3047 176.874 28.3954C176.964 28.4862 176.964 28.6676 176.964 28.7583V32.5685C177.687 31.4799 178.318 30.6634 178.951 30.0284C179.584 29.3933 180.125 28.8491 180.757 28.4862C181.299 28.1232 181.842 27.8511 182.383 27.6697C182.924 27.4883 183.467 27.4883 184.008 27.4883C184.279 27.4883 184.55 27.4883 184.822 27.4883C185.182 27.4883 185.453 27.579 185.815 27.6697C186.175 27.7605 186.447 27.8511 186.718 27.9418C186.989 28.0325 187.17 28.1232 187.351 28.214C187.44 28.3047 187.53 28.3954 187.621 28.4862C187.621 28.5769 187.711 28.6676 187.711 28.8491C187.711 28.9398 187.801 29.2118 187.801 29.484C187.53 29.6655 187.53 30.0284 187.53 30.482Z" fill="#292A39"/>
<path id="Vector_5" d="M194.756 54.8854C194.756 55.0669 194.756 55.1576 194.665 55.2483C194.575 55.3391 194.484 55.4298 194.304 55.5205C194.123 55.6112 193.853 55.6112 193.582 55.702C193.31 55.702 192.858 55.7927 192.407 55.7927C191.956 55.7927 191.594 55.7927 191.233 55.702C190.962 55.702 190.691 55.6112 190.51 55.5205C190.329 55.4298 190.24 55.3391 190.15 55.2483C190.059 55.1576 190.059 54.9761 190.059 54.8854V16.1483C190.059 15.9669 190.059 15.8761 190.15 15.7854C190.24 15.6947 190.329 15.6039 190.51 15.5132C190.691 15.4225 190.962 15.4225 191.233 15.3318C191.505 15.3318 191.956 15.241 192.407 15.241C192.858 15.241 193.31 15.241 193.582 15.3318C193.853 15.3318 194.123 15.4225 194.304 15.5132C194.484 15.6039 194.575 15.6947 194.665 15.7854C194.756 15.8761 194.756 16.0576 194.756 16.1483V54.8854Z" fill="#292A39"/>
<path id="Vector_6" d="M216.882 47.8094C216.882 49.1702 216.609 50.3495 216.159 51.3474C215.708 52.4361 214.984 53.2526 214.082 53.9784C213.179 54.7041 212.095 55.2485 210.83 55.6112C209.566 55.9741 208.211 56.1556 206.676 56.1556C205.772 56.1556 204.871 56.0649 204.057 55.9742C203.244 55.7927 202.432 55.6112 201.799 55.4298C201.167 55.2485 200.535 54.9763 200.084 54.7041C199.632 54.4319 199.27 54.2504 199.089 54.069C198.91 53.8877 198.729 53.6155 198.639 53.2526C198.548 52.8897 198.458 52.4362 198.458 51.8011C198.458 51.4381 198.458 51.1661 198.548 50.8939C198.548 50.6217 198.639 50.4403 198.729 50.2588C198.819 50.0773 198.91 49.9866 199 49.8959C199.089 49.8053 199.27 49.8053 199.362 49.8053C199.541 49.8053 199.903 49.8959 200.265 50.1681C200.716 50.4403 201.167 50.7124 201.799 50.9846C202.432 51.2568 203.154 51.6196 203.967 51.8011C204.779 52.0732 205.772 52.164 206.856 52.164C207.67 52.164 208.392 52.0732 209.025 51.8918C209.656 51.7103 210.288 51.4381 210.74 51.1661C211.192 50.8032 211.553 50.4403 211.824 49.8959C212.095 49.3517 212.185 48.7166 212.185 48.0816C212.185 47.3558 212.004 46.7208 211.643 46.2672C211.281 45.7229 210.74 45.36 210.199 44.9064C209.566 44.5435 208.844 44.1807 208.122 43.9085C207.308 43.6363 206.586 43.2734 205.772 43.0013C204.96 42.6384 204.147 42.2755 203.335 41.9126C202.521 41.4591 201.89 41.0055 201.258 40.3704C200.625 39.7354 200.174 39.0096 199.813 38.1931C199.451 37.3767 199.27 36.3787 199.27 35.1994C199.27 34.2015 199.451 33.2036 199.903 32.2963C200.265 31.3892 200.896 30.5728 201.709 29.8469C202.521 29.1213 203.516 28.5769 204.69 28.1232C205.863 27.6697 207.218 27.4883 208.844 27.4883C209.566 27.4883 210.199 27.579 210.921 27.6697C211.643 27.7605 212.276 27.9418 212.817 28.1232C213.358 28.3047 213.81 28.4862 214.262 28.6676C214.624 28.8491 214.984 29.0305 215.165 29.2118C215.346 29.3933 215.527 29.484 215.527 29.5748C215.616 29.6655 215.616 29.8469 215.708 29.9377C215.708 30.1191 215.797 30.3006 215.797 30.482C215.797 30.6634 215.797 30.9356 215.797 31.2985C215.797 31.6614 215.797 31.9336 215.797 32.1149C215.797 32.3871 215.708 32.5685 215.616 32.75C215.527 32.9314 215.436 33.0222 215.346 33.1129C215.256 33.2036 215.165 33.2036 214.984 33.2036C214.804 33.2036 214.532 33.1129 214.262 32.8407C213.901 32.6593 213.539 32.3871 212.998 32.1149C212.455 31.8428 211.824 31.6614 211.192 31.3892C210.469 31.2077 209.656 31.0263 208.753 31.0263C207.941 31.0263 207.218 31.117 206.586 31.2985C205.953 31.4799 205.502 31.7521 205.05 32.1149C204.69 32.4778 204.328 32.8407 204.147 33.2944C203.967 33.7479 203.876 34.2922 203.876 34.8365C203.876 35.5623 204.057 36.1973 204.419 36.7416C204.779 37.286 205.322 37.7395 205.953 38.1024C206.586 38.4653 207.308 38.8282 208.03 39.191C208.844 39.4632 209.656 39.8261 210.469 40.189C211.281 40.5518 212.095 40.9147 212.907 41.2776C213.72 41.6404 214.443 42.1848 215.075 42.7292C215.708 43.2734 216.159 43.9992 216.52 44.8156C216.701 45.7229 216.882 46.6301 216.882 47.8094Z" fill="#292A39"/>
<path id="Vector_7" d="M84.1263 42.8197C84.1263 65.4997 65.7935 83.9156 43.2163 83.9156C20.6389 83.9156 2.30615 65.4997 2.30615 42.8197C2.30615 20.1399 20.6389 1.72382 43.2163 1.72382C65.7935 1.72382 84.1263 20.1399 84.1263 42.8197Z" fill="#FFCD06"/>
<path id="Vector_8" d="M66.2452 47.3556C65.8839 46.267 65.3421 45.3599 64.6195 44.5433C63.9874 43.7269 63.1747 43.0918 62.2715 42.5475C61.3684 42.0032 60.375 41.6403 59.3816 41.4588C60.1944 41.096 60.917 40.6424 61.5491 40.098C62.1812 39.5538 62.7231 38.9187 63.1747 38.193C63.6262 37.4672 63.8971 36.7415 64.1681 35.9249C64.3486 35.1085 64.5292 34.2013 64.5292 33.2941C64.5292 31.7519 64.2584 30.391 63.8068 29.2117C63.3552 28.0324 62.6328 27.0345 61.6394 26.1273C60.646 25.3108 59.472 24.6758 58.027 24.2222C56.5821 23.7685 54.6855 23.5871 52.4278 23.5871H48.3639H43.8484H43.7581C43.3066 23.5871 42.855 23.7685 42.4937 24.0407C42.1326 24.3129 41.8616 24.8571 41.8616 25.6737V27.7602V40.098H38.5202H33.8241C32.4695 40.098 31.476 39.9167 30.6633 39.5538C29.8505 39.1909 29.2184 38.7372 28.6765 38.193C28.1347 37.6486 27.7734 36.9229 27.5025 36.1971C27.2315 35.3807 27.1412 34.6548 27.1412 33.7477C27.1412 32.8406 27.2315 32.024 27.5025 31.2076C27.7734 30.4817 28.1347 29.8468 28.6765 29.3024C29.2184 28.7582 29.9408 28.3953 30.8439 28.1231C31.747 27.8509 32.921 27.6694 34.366 27.6694H39.0621H39.1523V23.4963H38.7912H34.095C31.8373 23.4963 29.9408 23.6778 28.4958 24.1314C27.051 24.5851 25.877 25.22 24.8834 26.0366C23.89 26.853 23.1676 27.8509 22.716 29.121C22.2645 30.3004 21.9936 31.6612 21.9936 33.2033C21.9936 34.1106 22.0839 35.0178 22.3549 35.8343C22.5355 36.6507 22.8966 37.4672 23.3483 38.1023C23.7997 38.8279 24.3416 39.463 24.9737 40.0073C25.606 40.5517 26.3284 41.0053 27.1412 41.3682C26.1478 41.5495 25.1544 41.9124 24.2513 42.4568C23.3483 43.001 22.5355 43.6361 21.9033 44.4526C21.2712 45.2691 20.7292 46.1763 20.2778 47.2649C19.9165 48.3535 19.7358 49.533 19.7358 50.803C19.7358 51.9823 19.9165 53.071 20.1874 54.1596C20.4584 55.1576 20.9099 56.0647 21.4518 56.8811C21.9936 57.6977 22.6258 58.4234 23.4386 58.9678C24.2513 59.6027 25.0641 60.0564 26.0575 60.51C27.051 60.9635 28.0444 61.2357 29.1281 61.4172C30.2118 61.5986 31.476 61.6893 32.921 61.6893H37.6171H39.3329V57.5162H37.0752H32.3792C31.2052 57.5162 30.2118 57.3348 29.3989 57.0626C28.4958 56.7904 27.7734 56.3369 27.1412 55.8833C26.5091 55.3389 25.9671 54.7039 25.606 53.8874C25.2447 53.071 25.0641 52.1638 25.0641 51.0751C25.0641 49.8957 25.2447 48.8979 25.606 48.0814C25.9671 47.1741 26.5091 46.4485 27.2315 45.9041C27.9541 45.2691 28.7668 44.9062 29.8505 44.5433C30.9342 44.2711 32.1986 44.0898 33.8241 44.0898H38.5202H42.1326V57.5162V59.8749C42.1326 60.6007 42.3132 61.145 42.7647 61.5079C43.126 61.7801 43.5775 61.9615 44.0291 61.9615H44.1194H48.6349H53.8728C55.3178 61.9615 56.5821 61.8708 57.6658 61.6893C58.7495 61.5079 59.8332 61.145 60.7363 60.7821C61.7297 60.3285 62.5424 59.8749 63.3552 59.2399C64.1681 58.6048 64.8002 57.8792 65.3421 57.1533C65.8839 56.3369 66.3355 55.4296 66.6063 54.4317C66.8773 53.4339 67.0579 52.3453 67.0579 51.0751C66.8773 49.6237 66.6063 48.4442 66.2452 47.3556ZM51.4344 27.8509H51.9763C53.4212 27.8509 54.5952 28.0324 55.4984 28.3045C56.4015 28.5767 57.1239 28.9396 57.6658 29.4839C58.2076 30.0282 58.5689 30.6632 58.8397 31.389C59.1107 32.1147 59.201 32.9313 59.201 33.9292C59.201 34.7456 59.1107 35.5621 58.8397 36.3786C58.5689 37.1951 58.2076 37.8301 57.6658 38.3744C57.1239 38.9187 56.4918 39.3723 55.6789 39.7352C54.8662 40.098 53.7824 40.2795 52.5181 40.2795H51.4344H46.7384V27.8509H51.4344ZM51.4344 57.6977H46.7384V44.2711H51.4344H52.8794C54.5049 44.2711 55.7692 44.4526 56.8529 44.7248C57.9366 44.9969 58.7495 45.4506 59.472 46.0855C60.1944 46.7206 60.7363 47.4463 61.0975 48.2629C61.4587 49.17 61.6394 50.1679 61.6394 51.2565C61.6394 52.3453 61.4587 53.2524 61.0975 54.0688C60.7363 54.8854 60.1944 55.5203 59.5623 56.0647C58.93 56.609 58.1173 56.9719 57.3045 57.2441C56.4015 57.5162 55.4081 57.6977 54.3244 57.6977H51.4344Z" fill="#FCFCFD"/>
</g>
</svg>
