<svg width="83" height="82" viewBox="0 0 83 82" fill="none" xmlns="http://www.w3.org/2000/svg">
<g id="Group 7082">
<rect id="Rectangle 3240" x="10.6897" y="0.721313" width="72" height="72" rx="24" transform="rotate(7.75868 10.6897 0.721313)" fill="#FFF9EB"/>
<path id="Shape" d="M55.1535 23.2621C58.9281 23.5956 61.7177 26.9258 61.3842 30.7004L60.3158 42.7922L59.2475 54.884C58.914 58.6585 55.5837 61.4481 51.8091 61.1146L27.6256 58.9779C23.851 58.6444 21.0614 55.3141 21.3949 51.5395L23.5316 27.356C23.8651 23.5814 27.1954 20.7918 30.97 21.1253L55.1535 23.2621ZM57.8117 35.1533L26.268 32.3662L24.5493 51.8182C24.3697 53.8507 25.8718 55.6439 27.9043 55.8235L52.0878 57.9602C54.1203 58.1398 55.9135 56.6377 56.0931 54.6053L57.8117 35.1533ZM31.9876 45.5876C33.4394 45.7159 34.5123 46.9967 34.384 48.4485C34.2558 49.9003 32.9749 50.9732 31.5231 50.8449C30.0714 50.7166 28.9985 49.4358 29.1267 47.984C29.255 46.5322 30.5359 45.4593 31.9876 45.5876ZM40.9251 46.3773C42.3768 46.5055 43.4497 47.7864 43.3214 49.2382C43.1932 50.6899 41.9123 51.7628 40.4605 51.6346C39.0088 51.5063 37.9359 50.2254 38.0642 48.7737C38.1924 47.3219 39.4733 46.249 40.9251 46.3773ZM32.7309 37.1759C34.1826 37.3042 35.2555 38.5851 35.1272 40.0368C34.999 41.4886 33.7181 42.5615 32.2663 42.4332C30.8146 42.305 29.7417 41.0241 29.87 39.5723C29.9982 38.1206 31.2791 37.0477 32.7309 37.1759ZM41.6683 37.9656C43.12 38.0939 44.1929 39.3747 44.0647 40.8265C43.9364 42.2783 42.6555 43.3512 41.2038 43.2229C39.752 43.0946 38.6791 41.8137 38.8074 40.362C38.9356 38.9102 40.2165 37.8373 41.6683 37.9656ZM50.6057 38.7552C52.0574 38.8835 53.1303 40.1644 53.0021 41.6161C52.8738 43.0679 51.5929 44.1408 50.1412 44.0125C48.6894 43.8843 47.6165 42.6034 47.7448 41.1516C47.873 39.6999 49.1539 38.627 50.6057 38.7552ZM54.8748 26.4164L30.6913 24.2797C28.6588 24.1001 26.8656 25.6022 26.686 27.6347L26.5467 29.2119L58.0905 31.9989L58.2298 30.4217C58.4094 28.3892 56.9073 26.596 54.8748 26.4164Z" fill="#9490A5"/>
</g>
</svg>
