<svg width="30" height="30" viewBox="0 0 30 30" fill="none" xmlns="http://www.w3.org/2000/svg">
<g id="Group 7741">
<circle id="Ellipse 5" cx="15" cy="15" r="14.5" stroke="#7350FF"/>
<path id="Shape" d="M14.9963 7.29333C18.1966 7.29333 20.8097 9.81786 20.9196 13.0216L20.9229 13.2199V16.4574L22.0134 18.9513C22.068 19.0761 22.0962 19.2109 22.0962 19.3471C22.0962 19.8926 21.6539 20.3348 21.1084 20.3348L17.367 20.336C17.367 21.6453 16.3056 22.7066 14.9963 22.7066C13.7338 22.7066 12.7018 21.7197 12.6297 20.4753L12.6253 20.3342L8.89183 20.3348C8.75643 20.3348 8.62248 20.307 8.4983 20.253C7.99793 20.0357 7.7685 19.4539 7.98584 18.9535L9.06973 16.4582V13.2198C9.0702 9.93668 11.7186 7.29333 14.9963 7.29333ZM16.1813 20.3342L13.811 20.336C13.811 20.9906 14.3417 21.5213 14.9963 21.5213C15.6125 21.5213 16.1188 21.0512 16.1762 20.4502L16.1813 20.3342ZM14.9963 8.47865C12.3727 8.47865 10.2554 10.5919 10.255 13.2199V16.7045L9.19302 19.1495H20.8064L19.7376 16.7052L19.7377 13.2301L19.7347 13.0521C19.647 10.497 17.5579 8.47865 14.9963 8.47865Z" fill="#7350FF"/>
</g>
</svg>
