<svg width="31" height="30" viewBox="0 0 31 30" fill="none" xmlns="http://www.w3.org/2000/svg">
<circle cx="15.5" cy="15" r="14.5" stroke="#7350FF"/>
<path d="M22.1668 22.7001V21.0334C22.1668 20.1494 21.8156 19.3015 21.1905 18.6764C20.5654 18.0513 19.7176 17.7001 18.8335 17.7001H12.1668C11.2828 17.7001 10.4349 18.0513 9.80981 18.6764C9.18469 19.3015 8.8335 20.1494 8.8335 21.0334V22.7001" stroke="#7350FF" stroke-linecap="round" stroke-linejoin="round"/>
<path d="M15.4998 14.3667C17.3408 14.3667 18.8332 12.8744 18.8332 11.0334C18.8332 9.19246 17.3408 7.70007 15.4998 7.70007C13.6589 7.70007 12.1665 9.19246 12.1665 11.0334C12.1665 12.8744 13.6589 14.3667 15.4998 14.3667Z" stroke="#7350FF" stroke-linecap="round" stroke-linejoin="round"/>
</svg>
