<svg width="82" height="82" viewBox="0 0 82 82" fill="none" xmlns="http://www.w3.org/2000/svg">
<g id="Group 7083">
<rect id="Rectangle 3240" opacity="0.4" x="0.734619" y="9.60327" width="72" height="72" rx="24" transform="rotate(-7.08049 0.734619 9.60327)" fill="#D9E8DD"/>
<path id="Shape" d="M38.3444 20.4152C46.8479 19.3591 54.6241 25.2046 55.9735 33.681L56.0478 34.2068L57.1162 42.8091L60.8368 49.0757C61.0229 49.3893 61.1422 49.738 61.1872 50.0999C61.3672 51.5494 60.3381 52.8705 58.8886 53.0505L48.9477 54.2884C49.3798 57.7672 46.9099 60.9376 43.4311 61.3697C40.0765 61.7863 37.0087 59.5046 36.4064 56.2218L36.3482 55.8484L26.4282 57.0821C26.0684 57.1268 25.7033 57.0971 25.3555 56.9947C23.9543 56.5824 23.1527 55.1122 23.565 53.7109L25.6215 46.7228L24.5528 38.1183C23.4706 29.3945 29.6352 21.4969 38.3444 20.4152ZM45.7967 54.6749L39.4992 55.4619C39.7153 57.2013 41.3005 58.4362 43.0399 58.2202C44.677 58.0169 45.8672 56.6007 45.8215 54.9846L45.7967 54.6749ZM38.7356 23.5647C31.7644 24.4306 26.836 30.7443 27.7023 37.7274L28.8523 46.9861L26.8373 53.8333L57.695 50.0007L54.0485 43.8587L52.9019 34.625L52.8353 34.1531C51.7588 27.3928 45.5418 22.7194 38.7356 23.5647Z" fill="#9490A5"/>
</g>
</svg>
