<svg width="14" height="14" viewBox="0 0 14 14" fill="none" xmlns="http://www.w3.org/2000/svg">
<g id="blink-icon">
<path id="Vector" d="M3.22827 1.92223L3.22951 1.92157L3.24083 1.9156C3.25176 1.90988 3.26938 1.90079 3.29334 1.8888C3.34129 1.8648 3.4145 1.82926 3.5102 1.78599C3.70187 1.69933 3.98219 1.58239 4.3292 1.46517C5.02739 1.22933 5.97316 0.999993 6.99917 0.999993C8.0252 0.999993 8.97097 1.22933 9.6691 1.46517C10.0162 1.58239 10.2965 1.69933 10.4881 1.78599C10.5839 1.82926 10.657 1.8648 10.705 1.8888C10.729 1.90079 10.7466 1.90988 10.7575 1.9156L10.7688 1.92157L10.7699 1.9221C11.0417 2.06954 11.4024 2.00089 11.575 1.76799C11.7476 1.53487 11.6671 1.2259 11.3952 1.07788L11.3938 1.07712L11.3917 1.07599L11.3855 1.07267L11.3651 1.06192C11.3481 1.05299 11.324 1.0406 11.2933 1.02525C11.232 0.994563 11.1441 0.951973 11.0325 0.901494C10.8094 0.800654 10.49 0.667595 10.0969 0.534816C9.31488 0.270658 8.21898 0 6.99917 0C5.77936 0 4.68347 0.270658 3.90145 0.534816C3.50836 0.667595 3.18893 0.800654 2.96589 0.901494C2.85424 0.951973 2.76634 0.994563 2.70504 1.02525C2.67436 1.0406 2.65031 1.05299 2.63323 1.06192L2.61286 1.07267L2.60666 1.07599L2.60457 1.07712L2.60345 1.07773C2.33148 1.22574 2.2507 1.53487 2.42339 1.76799C2.59602 2.00105 2.95632 2.07007 3.22827 1.92223Z" fill="#F5F5F5"/>
<path id="Vector_2" d="M2.33333 2.99994C1.04467 2.99994 0 3.89536 0 4.99992V8.9999C0 10.1045 1.04467 10.9999 2.33333 10.9999H7.58333C8.872 10.9999 9.91667 10.1045 9.91667 8.9999V8.86148L13.1273 10.434C13.3078 10.5225 13.5296 10.5218 13.7095 10.4324C13.8893 10.3429 14 10.1781 14 9.99989V3.99993C14 3.82169 13.8893 3.65694 13.7095 3.56748C13.5296 3.47802 13.3078 3.47739 13.1273 3.56581L9.91667 5.13834V4.99992C9.91667 3.89536 8.872 2.99994 7.58333 2.99994H2.33333ZM9.91667 6.29009L12.8333 4.86152V9.1383L9.91667 7.70974V6.29009ZM1.16667 4.99992C1.16667 4.44765 1.68901 3.99993 2.33333 3.99993H7.58333C8.22766 3.99993 8.75 4.44765 8.75 4.99992V8.9999C8.75 9.55219 8.22766 9.99989 7.58333 9.99989H2.33333C1.68901 9.99989 1.16667 9.55219 1.16667 8.9999V4.99992Z" fill="#F5F5F5"/>
<path id="Vector_3" d="M3.22951 12.0786L3.22827 12.0779C2.95632 11.9301 2.59602 11.9991 2.42339 12.2322C2.2507 12.4653 2.33148 12.7744 2.60345 12.9224L2.60457 12.923L2.60666 12.9242L2.61286 12.9275L2.63323 12.9382C2.65031 12.9472 2.67436 12.9596 2.70504 12.9749C2.76634 13.0056 2.85424 13.0482 2.96589 13.0987C3.18893 13.1995 3.50836 13.3326 3.90145 13.4653C4.68347 13.7295 5.77936 14.0002 6.99917 14.0002C8.21898 14.0002 9.31488 13.7295 10.0969 13.4653C10.49 13.3326 10.8094 13.1995 11.0325 13.0987C11.1441 13.0482 11.232 13.0056 11.2933 12.9749C11.324 12.9596 11.3481 12.9472 11.3651 12.9382L11.3855 12.9275L11.3917 12.9242L11.3938 12.923L11.3952 12.9223C11.6671 12.7743 11.7476 12.4653 11.575 12.2322C11.4024 11.9993 11.0417 11.9306 10.7699 12.0781L10.7688 12.0786L10.7575 12.0846C10.7466 12.0903 10.729 12.0994 10.705 12.1114C10.657 12.1354 10.5839 12.1709 10.4881 12.2142C10.2965 12.3008 10.0162 12.4178 9.6691 12.535C8.97097 12.7708 8.0252 13.0002 6.99917 13.0002C5.97316 13.0002 5.02739 12.7708 4.3292 12.535C3.98219 12.4178 3.70187 12.3008 3.5102 12.2142C3.4145 12.1709 3.34129 12.1354 3.29334 12.1114C3.26938 12.0994 3.25176 12.0903 3.24083 12.0846L3.22951 12.0786Z" fill="#F5F5F5"/>
</g>
</svg>
